<mxfile host="app.diagrams.net" modified="2020-10-21T02:19:07.578Z" agent="5.0 (Macintosh; Intel Mac OS X 10_14_6) AppleWebKit/537.36 (KHTML, like Gecko) Chrome/86.0.4240.80 Safari/537.36" etag="diR_qbr3F6kMxUB-FWYy" version="13.8.0" type="github">
  <diagram id="W0PIrgdUMLI96M_QNtbx" name="Page-1">
    <mxGraphModel dx="1316" dy="750" grid="1" gridSize="10" guides="1" tooltips="1" connect="1" arrows="1" fold="1" page="1" pageScale="1" pageWidth="827" pageHeight="1169" math="0" shadow="0">
      <root>
        <mxCell id="0" />
        <mxCell id="1" parent="0" />
        <mxCell id="cEMwxvn-d5G1xKP16MCN-55" style="edgeStyle=orthogonalEdgeStyle;rounded=0;orthogonalLoop=1;jettySize=auto;html=1;entryX=0;entryY=0.5;entryDx=0;entryDy=0;" parent="1" source="cEMwxvn-d5G1xKP16MCN-1" target="cEMwxvn-d5G1xKP16MCN-2" edge="1">
          <mxGeometry relative="1" as="geometry" />
        </mxCell>
        <mxCell id="cEMwxvn-d5G1xKP16MCN-1" value="Web前端服务" style="rounded=0;whiteSpace=wrap;html=1;" parent="1" vertex="1">
          <mxGeometry x="90" y="70" width="130" height="100" as="geometry" />
        </mxCell>
        <mxCell id="cEMwxvn-d5G1xKP16MCN-2" value="Web后端服务" style="rounded=0;whiteSpace=wrap;html=1;" parent="1" vertex="1">
          <mxGeometry x="350" y="70" width="140" height="100" as="geometry" />
        </mxCell>
        <mxCell id="cEMwxvn-d5G1xKP16MCN-3" value="DB" style="shape=datastore;whiteSpace=wrap;html=1;" parent="1" vertex="1">
          <mxGeometry x="660" y="20" width="150" height="180" as="geometry" />
        </mxCell>
        <mxCell id="cEMwxvn-d5G1xKP16MCN-15" value="Appium后端" style="rounded=0;whiteSpace=wrap;html=1;" parent="1" vertex="1">
          <mxGeometry x="220" y="260" width="130" height="100" as="geometry" />
        </mxCell>
        <mxCell id="cEMwxvn-d5G1xKP16MCN-53" value="" style="edgeStyle=orthogonalEdgeStyle;rounded=0;orthogonalLoop=1;jettySize=auto;html=1;" parent="1" source="cEMwxvn-d5G1xKP16MCN-16" target="cEMwxvn-d5G1xKP16MCN-15" edge="1">
          <mxGeometry relative="1" as="geometry" />
        </mxCell>
        <mxCell id="cEMwxvn-d5G1xKP16MCN-54" value="" style="edgeStyle=orthogonalEdgeStyle;rounded=0;orthogonalLoop=1;jettySize=auto;html=1;" parent="1" source="cEMwxvn-d5G1xKP16MCN-16" target="cEMwxvn-d5G1xKP16MCN-2" edge="1">
          <mxGeometry relative="1" as="geometry" />
        </mxCell>
        <mxCell id="cEMwxvn-d5G1xKP16MCN-16" value="Appium客户端" style="rounded=0;whiteSpace=wrap;html=1;" parent="1" vertex="1">
          <mxGeometry x="460" y="260" width="130" height="100" as="geometry" />
        </mxCell>
        <mxCell id="cEMwxvn-d5G1xKP16MCN-51" value="" style="edgeStyle=orthogonalEdgeStyle;rounded=0;orthogonalLoop=1;jettySize=auto;html=1;" parent="1" source="cEMwxvn-d5G1xKP16MCN-18" target="cEMwxvn-d5G1xKP16MCN-15" edge="1">
          <mxGeometry relative="1" as="geometry" />
        </mxCell>
        <mxCell id="cEMwxvn-d5G1xKP16MCN-18" value="" style="points=[[0.015,0.015,0],[0.985,0.015,0],[0.985,0.985,0],[0.015,0.985,0],[0.25,0,0],[0.5,0,0],[0.75,0,0],[1,0.25,0],[1,0.5,0],[1,0.75,0],[0.75,1,0],[0.5,1,0],[0.25,1,0],[0,0.75,0],[0,0.5,0],[0,0.25,0]];verticalLabelPosition=bottom;html=1;verticalAlign=top;aspect=fixed;align=center;pointerEvents=1;shape=mxgraph.cisco19.cell_phone;fillColor=#005073;strokeColor=none;" parent="1" vertex="1">
          <mxGeometry x="195" y="430" width="25" height="50" as="geometry" />
        </mxCell>
        <mxCell id="cEMwxvn-d5G1xKP16MCN-48" value="" style="edgeStyle=orthogonalEdgeStyle;rounded=0;orthogonalLoop=1;jettySize=auto;html=1;" parent="1" source="cEMwxvn-d5G1xKP16MCN-19" target="cEMwxvn-d5G1xKP16MCN-15" edge="1">
          <mxGeometry relative="1" as="geometry" />
        </mxCell>
        <mxCell id="cEMwxvn-d5G1xKP16MCN-19" value="" style="points=[[0.015,0.015,0],[0.985,0.015,0],[0.985,0.985,0],[0.015,0.985,0],[0.25,0,0],[0.5,0,0],[0.75,0,0],[1,0.25,0],[1,0.5,0],[1,0.75,0],[0.75,1,0],[0.5,1,0],[0.25,1,0],[0,0.75,0],[0,0.5,0],[0,0.25,0]];verticalLabelPosition=bottom;html=1;verticalAlign=top;aspect=fixed;align=center;pointerEvents=1;shape=mxgraph.cisco19.cell_phone;fillColor=#005073;strokeColor=none;" parent="1" vertex="1">
          <mxGeometry x="240" y="430" width="25" height="50" as="geometry" />
        </mxCell>
        <mxCell id="cEMwxvn-d5G1xKP16MCN-47" value="" style="edgeStyle=orthogonalEdgeStyle;rounded=0;orthogonalLoop=1;jettySize=auto;html=1;" parent="1" source="cEMwxvn-d5G1xKP16MCN-20" target="cEMwxvn-d5G1xKP16MCN-15" edge="1">
          <mxGeometry relative="1" as="geometry" />
        </mxCell>
        <mxCell id="cEMwxvn-d5G1xKP16MCN-20" value="" style="points=[[0.015,0.015,0],[0.985,0.015,0],[0.985,0.985,0],[0.015,0.985,0],[0.25,0,0],[0.5,0,0],[0.75,0,0],[1,0.25,0],[1,0.5,0],[1,0.75,0],[0.75,1,0],[0.5,1,0],[0.25,1,0],[0,0.75,0],[0,0.5,0],[0,0.25,0]];verticalLabelPosition=bottom;html=1;verticalAlign=top;aspect=fixed;align=center;pointerEvents=1;shape=mxgraph.cisco19.cell_phone;fillColor=#005073;strokeColor=none;" parent="1" vertex="1">
          <mxGeometry x="290" y="430" width="25" height="50" as="geometry" />
        </mxCell>
        <mxCell id="cEMwxvn-d5G1xKP16MCN-49" value="" style="edgeStyle=orthogonalEdgeStyle;rounded=0;orthogonalLoop=1;jettySize=auto;html=1;" parent="1" source="cEMwxvn-d5G1xKP16MCN-21" target="cEMwxvn-d5G1xKP16MCN-15" edge="1">
          <mxGeometry relative="1" as="geometry" />
        </mxCell>
        <mxCell id="cEMwxvn-d5G1xKP16MCN-21" value="" style="points=[[0.015,0.015,0],[0.985,0.015,0],[0.985,0.985,0],[0.015,0.985,0],[0.25,0,0],[0.5,0,0],[0.75,0,0],[1,0.25,0],[1,0.5,0],[1,0.75,0],[0.75,1,0],[0.5,1,0],[0.25,1,0],[0,0.75,0],[0,0.5,0],[0,0.25,0]];verticalLabelPosition=bottom;html=1;verticalAlign=top;aspect=fixed;align=center;pointerEvents=1;shape=mxgraph.cisco19.cell_phone;fillColor=#005073;strokeColor=none;" parent="1" vertex="1">
          <mxGeometry x="340" y="430" width="25" height="50" as="geometry" />
        </mxCell>
        <mxCell id="cEMwxvn-d5G1xKP16MCN-24" style="edgeStyle=orthogonalEdgeStyle;rounded=0;orthogonalLoop=1;jettySize=auto;html=1;entryX=0.5;entryY=1;entryDx=0;entryDy=0;" parent="1" source="cEMwxvn-d5G1xKP16MCN-23" target="cEMwxvn-d5G1xKP16MCN-1" edge="1">
          <mxGeometry relative="1" as="geometry" />
        </mxCell>
        <mxCell id="cEMwxvn-d5G1xKP16MCN-23" value="Actor" style="shape=umlActor;verticalLabelPosition=bottom;verticalAlign=top;html=1;outlineConnect=0;" parent="1" vertex="1">
          <mxGeometry y="220" width="30" height="50" as="geometry" />
        </mxCell>
        <mxCell id="cEMwxvn-d5G1xKP16MCN-57" style="edgeStyle=orthogonalEdgeStyle;rounded=0;orthogonalLoop=1;jettySize=auto;html=1;entryX=0;entryY=0.5;entryDx=0;entryDy=0;" parent="1" edge="1">
          <mxGeometry relative="1" as="geometry">
            <mxPoint x="490" y="110" as="sourcePoint" />
            <mxPoint x="660" y="110" as="targetPoint" />
          </mxGeometry>
        </mxCell>
        <mxCell id="cEMwxvn-d5G1xKP16MCN-58" value="写入" style="edgeLabel;html=1;align=center;verticalAlign=middle;resizable=0;points=[];" parent="cEMwxvn-d5G1xKP16MCN-57" vertex="1" connectable="0">
          <mxGeometry x="-0.0667" relative="1" as="geometry">
            <mxPoint as="offset" />
          </mxGeometry>
        </mxCell>
        <mxCell id="cEMwxvn-d5G1xKP16MCN-59" style="edgeStyle=orthogonalEdgeStyle;rounded=0;orthogonalLoop=1;jettySize=auto;html=1;exitX=0;exitY=0.7;exitDx=0;exitDy=0;entryX=1.023;entryY=0.86;entryDx=0;entryDy=0;entryPerimeter=0;" parent="1" edge="1">
          <mxGeometry relative="1" as="geometry">
            <mxPoint x="660" y="146" as="sourcePoint" />
            <mxPoint x="493.22" y="146" as="targetPoint" />
          </mxGeometry>
        </mxCell>
        <mxCell id="cEMwxvn-d5G1xKP16MCN-60" value="读取" style="edgeLabel;html=1;align=center;verticalAlign=middle;resizable=0;points=[];" parent="cEMwxvn-d5G1xKP16MCN-59" vertex="1" connectable="0">
          <mxGeometry x="0.111" y="2" relative="1" as="geometry">
            <mxPoint as="offset" />
          </mxGeometry>
        </mxCell>
        <mxCell id="cEMwxvn-d5G1xKP16MCN-66" value="" style="edgeStyle=orthogonalEdgeStyle;rounded=0;orthogonalLoop=1;jettySize=auto;html=1;" parent="1" source="cEMwxvn-d5G1xKP16MCN-65" target="cEMwxvn-d5G1xKP16MCN-16" edge="1">
          <mxGeometry relative="1" as="geometry" />
        </mxCell>
        <mxCell id="cEMwxvn-d5G1xKP16MCN-65" value="" style="ellipse;whiteSpace=wrap;html=1;aspect=fixed;" parent="1" vertex="1">
          <mxGeometry x="650" y="235" width="150" height="150" as="geometry" />
        </mxCell>
        <mxCell id="cEMwxvn-d5G1xKP16MCN-61" value="" style="shape=mxgraph.bpmn.shape;html=1;verticalLabelPosition=bottom;labelBackgroundColor=#ffffff;verticalAlign=top;align=center;perimeter=ellipsePerimeter;outlineConnect=0;outline=standard;symbol=timer;" parent="1" vertex="1">
          <mxGeometry x="695" y="282.5" width="60" height="55" as="geometry" />
        </mxCell>
      </root>
    </mxGraphModel>
  </diagram>
</mxfile>
